<?xml version="1.0" encoding="UTF-8" standalone="no"?>
<!-- Created by "Matthias Morin" <matthias.morin@gmail.com> (http://github.com/TangoMan75) -->

<svg
   xmlns:dc="http://purl.org/dc/elements/1.1/"
   xmlns:cc="http://creativecommons.org/ns#"
   xmlns:rdf="http://www.w3.org/1999/02/22-rdf-syntax-ns#"
   xmlns:svg="http://www.w3.org/2000/svg"
   xmlns="http://www.w3.org/2000/svg"
   xmlns:sodipodi="http://sodipodi.sourceforge.net/DTD/sodipodi-0.dtd"
   xmlns:inkscape="http://www.inkscape.org/namespaces/inkscape"
   version="1.1"
   id="svg14"
   sodipodi:docname="rootgalaxy.svg"
   width="320"
   height="512"
   inkscape:version="0.92.5 (2060ec1f9f, 2020-04-08)">
  <metadata
     id="metadata20">
    <rdf:RDF>
      <cc:Work
         rdf:about="">
        <dc:format>image/svg+xml</dc:format>
        <dc:type
           rdf:resource="http://purl.org/dc/dcmitype/StillImage" />
      </cc:Work>
    </rdf:RDF>
  </metadata>
  <defs
     id="defs18" />
  <sodipodi:namedview
     pagecolor="#ffffff"
     bordercolor="#666666"
     borderopacity="1"
     objecttolerance="10"
     gridtolerance="10"
     guidetolerance="10"
     inkscape:pageopacity="0"
     inkscape:pageshadow="2"
     inkscape:window-width="1920"
     inkscape:window-height="1043"
     id="namedview16"
     showgrid="false"
     inkscape:zoom="2.36"
     inkscape:cx="-46"
     inkscape:cy="462"
     inkscape:window-x="1920"
     inkscape:window-y="0"
     inkscape:window-maximized="1"
     inkscape:current-layer="svg14" />
  <title
     id="title2">RootGalaxy.fr</title>
  <g
     id="g6">
    <path
       d="M 272,0 H 48 C 21.5,0 0,21.5 0,48 v 416 c 0,26.5 21.5,48 48,48 h 224 c 26.5,0 48,-21.5 48,-48 V 48 C 320,21.5 298.5,0 272,0 Z M 160,480 c -17.7,0 -70,-0.3 -70,-18 0,-17.7 52.3,-20 70,-20 17.7,0 70,2.3 70,20 0,17.7 -52.3,18 -70,18 z m 112,-84 c 0,6.6 -5.4,16 -12,16 H 60 c -6.6,0 -12,-9.4 -12,-16 V 60 c 0,-6.6 5.4,-12 12,-12 h 200 c 6.6,0 12,5.4 12,12 z"
       style="fill:#8a8ada"
       id="path4"
       inkscape:connector-curvature="0" />
  </g>
  <path
     d="m 55.19724,409.91146 c -1.39053,-0.97397 -3.44096,-3.78075 -4.55652,-6.23729 -1.95352,-4.3018 -2.02916,-10.79323 -2.05211,-176.11034 l -0.0238,-171.643903 3.16505,-3.542537 3.16506,-3.542537 103.41121,-0.288862 c 74.31559,-0.207588 104.23565,0.05218 106.34139,0.923258 1.6116,0.666666 3.80821,2.505128 4.88136,4.085472 1.85812,2.736308 1.95119,11.073636 1.95119,174.805559 0,160.94375 -0.11995,172.15139 -1.87664,175.36184 -1.03214,1.88631 -3.17255,4.44902 -4.75645,5.69492 -2.87409,2.26076 -3.08308,2.26527 -105.00065,2.26527 -92.70223,0 -102.35401,-0.16333 -104.64907,-1.77085 z"
     style="fill:#f9f9f9"
     id="path8"
     inkscape:connector-curvature="0" />
  <path
     d="M 136.97157,478.94049 C 105.9262,477.0145 90.86988,471.4208 90.86988,461.81288 c 0,-10.09396 16.72123,-16.10128 52.07562,-18.70881 36.78786,-2.71327 75.81367,3.45047 84.085,13.28039 7.82276,9.29682 -2.47312,17.29951 -26.7427,20.78636 -14.24345,2.04638 -44.99952,2.906 -63.31623,1.76967 z"
     style="fill:#f9f9f9"
     id="path10"
     inkscape:connector-curvature="0" />
  <path
     d="m 133.74581,478.93824 c -28.9033,-2.2639 -42.87593,-7.67919 -42.87593,-16.61717 0,-2.03653 0.95814,-4.9202 2.12967,-6.40956 8.60562,-10.94027 57.55892,-16.64482 99.29405,-11.57078 17.8287,2.16756 30.61127,6.70232 35.14723,12.46886 7.3161,9.30093 -4.42849,17.65186 -29.5285,20.99608 -11.84891,1.5787 -49.89689,2.25027 -64.16652,1.13257 z"
     style="fill:#f2f2f2"
     id="path12"
     inkscape:connector-curvature="0" />
</svg>
